<mxfile host="Electron" modified="2024-04-19T02:13:21.418Z" agent="Mozilla/5.0 (X11; Linux x86_64) AppleWebKit/537.36 (KHTML, like Gecko) draw.io/24.2.5 Chrome/120.0.6099.109 Electron/28.1.0 Safari/537.36" etag="6x0LiGJoO-RmTjuWzbs8" version="24.2.5" type="device">
  <diagram name="第 1 页" id="gv1MWXk4KOd7kw6uBpSe">
    <mxGraphModel dx="637" dy="776" grid="1" gridSize="10" guides="1" tooltips="1" connect="1" arrows="1" fold="1" page="1" pageScale="1" pageWidth="827" pageHeight="1169" math="0" shadow="0">
      <root>
        <mxCell id="0" />
        <mxCell id="1" parent="0" />
        <mxCell id="KiZiC7v9caPTXNvfkAqK-1" value="D-Type&lt;div&gt;Flip-Flop&lt;/div&gt;" style="verticalLabelPosition=middle;shadow=0;dashed=0;align=center;html=1;verticalAlign=middle;shape=mxgraph.electrical.logic_gates.d_type_flip-flop;labelPosition=center;" vertex="1" parent="1">
          <mxGeometry x="160" y="740" width="100" height="80" as="geometry" />
        </mxCell>
      </root>
    </mxGraphModel>
  </diagram>
</mxfile>
